<?xml version="1.0" encoding="utf-8"?>
<!-- Generator: Adobe Illustrator 25.3.1, SVG Export Plug-In . SVG Version: 6.00 Build 0)  -->
<svg version="1.1" id="Layer_1" xmlns="http://www.w3.org/2000/svg" xmlns:xlink="http://www.w3.org/1999/xlink" x="0px" y="0px"
	 viewBox="0 0 93.98 11.23" style="enable-background:new 0 0 93.98 11.23;" xml:space="preserve">
<style type="text/css">
	.st0{stroke:#000000;stroke-width:0.5;stroke-miterlimit:10;}
	.st1{fill:#ED1C24;}
</style>
<g>
	<path d="M6.06,2.23H3.63v7.51H2.65V2.23H0.23V1.34h5.83V2.23z"/>
	<path d="M12.44,9.74h-0.82V6.55H8v3.19H7.18v-7H8v3.07h3.62V2.74h0.82V9.74z"/>
	<path d="M17.97,9.74h-3.71v-7h3.55v0.74h-2.73v2.33h2.53v0.74h-2.53V9h2.89V9.74z"/>
	<path class="st0" d="M26.16,9.89c-1.19,0-2.15-0.39-2.86-1.18s-1.08-1.81-1.08-3.06c0-1.35,0.37-2.43,1.1-3.23S25.04,1.2,26.3,1.2
		c1.16,0,2.09,0.39,2.8,1.17s1.06,1.8,1.06,3.06c0,1.37-0.36,2.46-1.09,3.25S27.38,9.89,26.16,9.89z M26.16,9
		c0.92,0,1.65-0.3,2.18-0.9s0.8-1.44,0.8-2.53c0-1.11-0.26-1.97-0.77-2.57s-1.23-0.91-2.13-0.91c-0.88,0-1.6,0.32-2.15,0.96
		s-0.83,1.47-0.83,2.51s0.27,1.87,0.81,2.5S25.3,9,26.16,9z"/>
	<path class="st0" d="M35.42,3.48h-2.73v2.42h2.53v0.74h-2.53v3.1h-0.82v-7h3.55V3.48z"/>
	<path class="st0" d="M40.49,3.48h-2.73v2.42h2.53v0.74h-2.53v3.1h-0.82v-7h3.55V3.48z"/>
	<path class="st0" d="M42.19,9.74v-8.4h2.4c0.73,0,1.3,0.17,1.73,0.52s0.64,0.81,0.64,1.4c0,0.48-0.13,0.89-0.39,1.24
		s-0.61,0.6-1.07,0.75v0.02c0.57,0.07,1.02,0.28,1.36,0.64s0.51,0.83,0.51,1.41c0,0.72-0.26,1.3-0.77,1.75s-1.17,0.67-1.95,0.67
		H42.19z M43.18,2.23v2.71h1.01c0.54,0,0.96-0.13,1.27-0.39s0.46-0.63,0.46-1.1c0-0.41-0.13-0.72-0.4-0.92s-0.67-0.3-1.2-0.3H43.18z
		 M43.18,5.83v3.02h1.34c0.58,0,1.03-0.14,1.34-0.41s0.48-0.65,0.48-1.12c0-0.5-0.17-0.87-0.51-1.12s-0.84-0.37-1.52-0.37H43.18z"/>
	<path class="st0" d="M52.83,9.74h-3.71v-7h3.55v0.74h-2.73v2.33h2.53v0.74h-2.53V9h2.89V9.74z"/>
	<path class="st0" d="M53.56,9.74l2.69-7h0.85l2.7,7h-0.91l-0.71-1.87h-3.03l-0.67,1.87H53.56z M55.41,7.13h2.49l-1.13-3.07
		c-0.02-0.05-0.04-0.11-0.05-0.19s-0.03-0.17-0.05-0.28h-0.02c-0.02,0.1-0.03,0.19-0.05,0.26S56.55,4,56.53,4.06L55.41,7.13z"/>
	<path class="st0" d="M64.42,3.48H62.4v6.26h-0.82V3.48h-2.02V2.74h4.86V3.48z"/>
	<path class="st0" d="M68.67,9.74v-8.4h2.32c1.48,0,2.59,0.34,3.33,1.02s1.11,1.71,1.11,3.07c0,1.3-0.41,2.34-1.23,3.13
		s-1.92,1.18-3.3,1.18H68.67z M69.66,2.23v6.62h1.25c1.1,0,1.96-0.29,2.57-0.88s0.92-1.43,0.92-2.51c0-1.08-0.29-1.89-0.86-2.42
		s-1.43-0.81-2.58-0.81H69.66z"/>
	<path class="st0" d="M79.93,9.86c-0.99,0-1.79-0.33-2.39-0.98s-0.9-1.51-0.9-2.55c0-1.13,0.3-2.02,0.91-2.7S79,2.63,80.04,2.63
		c0.97,0,1.75,0.33,2.34,0.98s0.89,1.5,0.89,2.55c0,1.14-0.3,2.05-0.91,2.71S80.94,9.86,79.93,9.86z M79.93,9.12
		c0.77,0,1.37-0.25,1.82-0.75s0.66-1.2,0.66-2.1c0-0.92-0.21-1.64-0.64-2.14s-1.02-0.76-1.78-0.76c-0.74,0-1.33,0.27-1.79,0.8
		s-0.69,1.23-0.69,2.09s0.22,1.56,0.67,2.08S79.21,9.12,79.93,9.12z"/>
	<path class="st0" d="M89.75,9.39c-0.34,0.16-0.67,0.28-0.99,0.36s-0.67,0.11-1.05,0.11c-1.06,0-1.88-0.32-2.47-0.96
		s-0.88-1.48-0.88-2.52c0-1.14,0.33-2.05,0.98-2.73s1.51-1.02,2.57-1.02c0.33,0,0.64,0.03,0.93,0.09s0.59,0.16,0.9,0.3l-0.3,0.67
		c-0.26-0.11-0.51-0.2-0.75-0.25s-0.5-0.08-0.78-0.08c-0.82,0-1.47,0.26-1.96,0.79s-0.73,1.25-0.73,2.17c0,0.86,0.23,1.54,0.7,2.04
		s1.08,0.76,1.84,0.76c0.28,0,0.56-0.03,0.83-0.09s0.55-0.16,0.83-0.3L89.75,9.39z"/>
	<path class="st1" d="M91.19,8.81c0-0.67,0.45-1.13,1.08-1.13s1.06,0.47,1.06,1.13c0,0.65-0.41,1.13-1.08,1.13
		C91.63,9.94,91.19,9.46,91.19,8.81z"/>
</g>
</svg>
