<?xml version="1.0" encoding="utf-8"?>
<!-- Generator: Adobe Illustrator 25.3.1, SVG Export Plug-In . SVG Version: 6.00 Build 0)  -->
<svg version="1.1" id="Layer_1" xmlns="http://www.w3.org/2000/svg" xmlns:xlink="http://www.w3.org/1999/xlink" x="0px" y="0px"
	 viewBox="0 0 87.54 9.7" style="enable-background:new 0 0 87.54 9.7;" xml:space="preserve">
<style type="text/css">
	.st0{fill:#FFFFFF;}
	.st1{fill:#FFFFFF;stroke:#FFFFFF;stroke-width:0.5;stroke-miterlimit:10;}
	.st2{fill:#ED1C24;}
</style>
<g>
	<path class="st0" d="M2.89,1.73H0.44V0.84h5.98v0.89H3.95v7.2H2.89V1.73z"/>
	<path class="st0" d="M7.8,2.86V5.4h2.93V2.86h0.79v6.07h-0.79V6.08H7.8v2.84H7.02V2.86H7.8z"/>
	<path class="st0" d="M15.96,6.08H13.6v2.19h2.63v0.66h-3.41V2.86h3.27v0.66H13.6v1.92h2.36V6.08z"/>
	<path class="st1" d="M27.48,4.8c0,2.78-1.69,4.26-3.75,4.26c-2.13,0-3.63-1.65-3.63-4.1c0-2.57,1.59-4.25,3.75-4.25
		C26.05,0.71,27.48,2.4,27.48,4.8z M21.22,4.93c0,1.73,0.93,3.27,2.57,3.27c1.65,0,2.59-1.52,2.59-3.36c0-1.61-0.84-3.29-2.57-3.29
		C22.08,1.56,21.22,3.16,21.22,4.93z"/>
	<path class="st1" d="M29.29,2.86h3.26v0.66h-2.48v2.02h2.29v0.65h-2.29v2.75h-0.78V2.86z"/>
	<path class="st1" d="M34.18,2.86h3.26v0.66h-2.48v2.02h2.29v0.65h-2.29v2.75h-0.78V2.86z"/>
	<path class="st1" d="M39.3,0.95c0.45-0.1,1.17-0.17,1.9-0.17c1.04,0,1.71,0.18,2.22,0.59c0.42,0.31,0.67,0.79,0.67,1.43
		c0,0.78-0.51,1.46-1.37,1.77V4.6c0.77,0.19,1.66,0.83,1.66,2.03c0,0.7-0.28,1.22-0.68,1.62C43.14,8.76,42.23,9,40.92,9
		c-0.72,0-1.27-0.05-1.62-0.1V0.95z M40.34,4.26h0.95c1.1,0,1.75-0.58,1.75-1.35c0-0.95-0.72-1.32-1.77-1.32
		c-0.48,0-0.75,0.04-0.92,0.07V4.26z M40.34,8.13c0.2,0.04,0.5,0.05,0.87,0.05c1.08,0,2.07-0.4,2.07-1.57c0-1.1-0.95-1.56-2.08-1.56
		h-0.86V8.13z"/>
	<path class="st1" d="M49.39,6.08h-2.36v2.19h2.63v0.66h-3.41V2.86h3.27v0.66h-2.49v1.92h2.36V6.08z"/>
	<path class="st1" d="M52.16,7.02l-0.63,1.91h-0.81l2.06-6.07h0.94l2.07,6.07h-0.84l-0.65-1.91H52.16z M54.15,6.4l-0.59-1.75
		c-0.14-0.4-0.22-0.76-0.31-1.11h-0.02c-0.09,0.36-0.19,0.73-0.31,1.1L52.32,6.4H54.15z"/>
	<path class="st1" d="M57.65,3.52h-1.84V2.86h4.49v0.67h-1.85v5.4h-0.79V3.52z"/>
	<path class="st1" d="M64.87,0.95c0.63-0.1,1.39-0.17,2.22-0.17c1.5,0,2.56,0.35,3.27,1.01c0.72,0.66,1.14,1.6,1.14,2.9
		c0,1.32-0.41,2.4-1.16,3.14C69.58,8.59,68.33,9,66.76,9c-0.74,0-1.37-0.04-1.89-0.1V0.95z M65.91,8.1
		c0.26,0.05,0.65,0.06,1.05,0.06c2.23,0,3.44-1.25,3.44-3.43c0.01-1.91-1.07-3.12-3.27-3.12c-0.54,0-0.95,0.05-1.22,0.11V8.1z"/>
	<path class="st1" d="M78.49,5.83c0,2.09-1.27,3.2-2.81,3.2c-1.6,0-2.72-1.24-2.72-3.08c0-1.93,1.2-3.19,2.81-3.19
		C77.42,2.76,78.49,4.03,78.49,5.83z M73.79,5.93c0,1.3,0.7,2.46,1.93,2.46c1.24,0,1.94-1.14,1.94-2.52c0-1.21-0.63-2.47-1.93-2.47
		C74.43,3.4,73.79,4.59,73.79,5.93z"/>
	<path class="st1" d="M84.25,8.73c-0.29,0.14-0.86,0.29-1.6,0.29c-1.71,0-2.99-1.08-2.99-3.07c0-1.9,1.29-3.19,3.16-3.19
		c0.76,0,1.23,0.16,1.44,0.27l-0.19,0.64c-0.3-0.14-0.72-0.25-1.22-0.25c-1.42,0-2.36,0.91-2.36,2.5c0,1.49,0.85,2.44,2.33,2.44
		c0.48,0,0.96-0.1,1.28-0.25L84.25,8.73z"/>
	<path class="st2" d="M85.34,7.99c0-0.67,0.45-1.13,1.08-1.13s1.06,0.47,1.06,1.13c0,0.65-0.41,1.13-1.08,1.13
		C85.78,9.12,85.34,8.64,85.34,7.99z"/>
</g>
</svg>
