<?xml version="1.0" standalone="no"?>
<!DOCTYPE svg PUBLIC "-//W3C//DTD SVG 20010904//EN"
 "http://www.w3.org/TR/2001/REC-SVG-20010904/DTD/svg10.dtd">
<svg version="1.0" xmlns="http://www.w3.org/2000/svg"
 width="200.000000pt" height="26.000000pt" viewBox="0 0 1514.000000 201.000000"
 preserveAspectRatio="xMidYMid meet">

<g transform="translate(0.000000,201.000000) scale(0.100000,-0.100000)"
fill="currentColor" fill-rule="evenodd">
<path d="M4055 1762 c-209 -10 -426 -153 -536 -352 -77 -140 -102 -373 -58
-537 66 -248 242 -426 476 -484 105 -25 261 -25 366 0 228 56 408 233 479 471
28 92 28 317 0 410 -35 119 -86 203 -175 293 -149 150 -320 211 -552 199z
m131 -273 c155 -28 247 -117 303 -290 14 -46 14 -209 0 -263 -30 -109 -86
-192 -162 -239 -75 -47 -112 -57 -210 -57 -75 0 -97 4 -150 28 -135 61 -227
220 -227 391 0 216 118 388 294 426 78 17 81 17 152 4z"/>
<path d="M6705 1749 c-3 -8 -4 -318 -3 -689 l3 -675 215 -3 c217 -3 407 9 458
30 118 48 162 80 211 152 41 62 56 120 55 221 0 75 -4 99 -26 147 -33 72 -108
148 -170 173 -27 11 -48 22 -48 25 0 3 17 24 39 47 66 72 85 124 85 233 0 84
-3 101 -27 147 -62 120 -129 164 -282 188 -22 3 -145 9 -272 12 -193 5 -234 3
-238 -8z m450 -244 c17 -8 41 -26 55 -40 21 -22 25 -36 24 -84 -1 -102 -60
-154 -173 -155 l-66 -1 -3 144 c-2 109 1 147 10 153 17 11 115 1 153 -17z m52
-527 c67 -16 118 -71 134 -141 10 -49 10 -62 -7 -109 -16 -43 -27 -57 -68 -83
-47 -29 -54 -30 -160 -30 l-111 0 -3 175 c-1 96 0 180 2 187 7 17 149 18 213
1z"/>
<path d="M10985 1748 c-3 -7 -4 -317 -3 -688 l3 -675 275 0 c232 1 288 4 355
19 226 53 404 221 466 441 12 42 22 116 26 185 13 288 -107 524 -327 643 -80
43 -121 55 -255 72 -135 18 -534 20 -540 3z m550 -273 c119 -31 179 -78 228
-178 63 -130 64 -333 1 -458 -30 -59 -93 -122 -151 -149 -58 -27 -197 -52
-271 -48 l-57 3 -3 415 c-1 228 0 421 3 429 7 18 161 9 250 -14z"/>
<path d="M227 1703 c-4 -3 -7 -41 -7 -84 0 -61 3 -78 16 -83 9 -3 81 -6 160
-6 l144 0 0 -575 0 -576 83 3 82 3 3 572 2 572 158 3 157 3 3 88 3 87 -399 0
c-219 0 -402 -3 -405 -7z"/>
<path d="M12740 1480 c-118 -15 -208 -61 -299 -151 -112 -111 -161 -232 -161
-400 0 -173 47 -294 160 -406 102 -102 228 -153 379 -153 211 0 381 96 482
273 51 90 69 165 69 288 0 173 -44 282 -158 396 -124 123 -288 177 -472 153z
m141 -214 c32 -7 77 -25 102 -39 45 -27 117 -112 117 -139 0 -8 5 -19 10 -24
6 -6 13 -46 16 -90 14 -172 -48 -302 -171 -360 -40 -19 -66 -24 -135 -24 -79
0 -90 3 -140 33 -141 84 -198 271 -136 441 48 133 127 195 276 215 3 0 30 -5
61 -13z"/>
<path d="M14005 1484 c-113 -16 -203 -62 -291 -149 -100 -98 -147 -195 -164
-339 -22 -179 31 -341 152 -468 141 -148 329 -193 563 -133 53 13 103 30 111
36 11 9 14 42 14 135 l0 124 -40 -20 c-284 -145 -514 -69 -558 185 -11 67 3
183 31 245 43 98 144 160 261 160 65 0 175 -33 251 -75 24 -14 46 -25 50 -25
3 0 4 60 3 132 l-3 133 -85 28 c-83 27 -219 42 -295 31z"/>
<path d="M5045 1468 c-3 -7 -4 -254 -3 -548 l3 -535 95 -3 c149 -5 136 -26
132 204 -2 109 -1 208 3 221 5 22 7 23 193 25 l187 3 0 100 0 100 -193 3 -193
2 3 113 3 112 190 5 190 5 3 80 c2 44 0 90 -3 102 l-5 23 -301 0 c-230 0 -301
-3 -304 -12z"/>
<path d="M5865 1468 c-3 -7 -4 -254 -3 -548 l3 -535 110 0 110 0 5 220 c4 121
7 221 8 223 1 1 85 2 185 2 101 0 186 2 188 4 2 2 3 50 1 105 l-3 101 -190 0
-190 0 3 113 3 112 188 3 187 2 0 105 0 105 -300 0 c-231 0 -302 -3 -305 -12z"/>
<path d="M7810 930 l0 -550 303 2 302 3 0 105 0 105 -188 3 -188 2 3 113 3
112 188 3 187 2 0 105 0 105 -190 0 -190 0 0 110 0 110 188 2 187 3 3 108 3
107 -306 0 -305 0 0 -550z"/>
<path d="M8989 1433 c-35 -80 -37 -84 -79 -193 -22 -58 -45 -114 -50 -125 -5
-11 -32 -78 -60 -150 -28 -71 -55 -139 -60 -150 -39 -87 -167 -422 -163 -428
2 -4 51 -7 108 -7 122 0 114 -6 166 128 l32 82 212 0 213 0 21 -45 c12 -25 21
-48 21 -51 0 -6 26 -67 39 -94 11 -21 231 -28 231 -7 0 13 -79 213 -150 380
-5 12 -39 96 -75 187 -37 91 -73 180 -81 197 -8 18 -21 51 -29 73 -8 22 -21
55 -28 73 -8 17 -28 64 -44 102 l-29 70 -87 3 -87 3 -21 -48z m121 -345 c0 -5
7 -26 16 -46 30 -69 33 -77 64 -155 17 -43 28 -83 25 -88 -8 -12 -232 -12
-239 0 -6 8 64 198 101 278 14 30 33 36 33 11z"/>
<path d="M9627 1473 c-4 -3 -7 -55 -7 -115 l0 -108 125 0 125 0 2 -432 3 -433
115 0 115 0 5 430 5 430 115 3 c63 1 117 7 120 11 3 5 4 57 2 115 l-3 106
-358 0 c-197 0 -361 -3 -364 -7z"/>
<path d="M1222 918 l3 -533 65 0 65 0 5 255 5 255 252 3 253 2 2 -257 3 -258
65 0 65 0 5 528 c5 527 5 528 -16 533 -11 3 -43 4 -70 2 l-49 -3 -5 -205 -5
-205 -230 -3 c-126 -1 -240 0 -252 3 -22 5 -23 8 -25 208 l-3 202 -68 3 -67 3
2 -533z"/>
<path d="M2230 915 l0 -535 288 2 287 3 3 67 3 68 -218 2 -218 3 -3 182 -2
183 217 2 218 3 0 68 0 69 -201 -2 c-110 0 -208 2 -217 6 -15 5 -17 24 -17
135 l0 129 218 2 217 3 0 70 0 70 -287 3 -288 2 0 -535z"/>
</g>
<g transform="translate(0.000000,201.000000) scale(0.100000,-0.100000)"
fill="#ff0000" stroke="none">
<path d="M14700 738 c-24 -13 -58 -40 -74 -61 -29 -36 -31 -45 -31 -117 0 -73
2 -81 31 -117 46 -56 84 -75 153 -75 64 0 101 15 144 58 102 102 58 276 -82
323 -51 17 -92 13 -141 -11z"/>
</g>
</svg>
