<svg id="svg" version="1.1" xmlns="http://www.w3.org/2000/svg" xmlns:xlink="http://www.w3.org/1999/xlink" width="400" height="53.10435931307794" viewBox="0, 0, 400,53.10435931307794"><g id="svgg"><path id="path0" d="M105.403 6.227 C 105.345 6.378,104.873 6.490,103.996 6.564 C 102.471 6.691,102.167 6.780,102.167 7.101 C 102.167 7.255,101.971 7.333,101.583 7.333 C 101.220 7.333,101.000 7.414,101.000 7.547 C 101.000 7.664,100.662 7.860,100.250 7.982 C 99.837 8.104,99.500 8.270,99.500 8.352 C 99.500 8.433,99.351 8.500,99.168 8.500 C 98.986 8.500,98.742 8.650,98.628 8.833 C 98.513 9.017,98.338 9.167,98.237 9.167 C 98.137 9.167,97.739 9.467,97.353 9.833 C 96.968 10.200,96.581 10.500,96.493 10.500 C 96.405 10.500,96.333 10.612,96.333 10.750 C 96.333 10.887,96.224 11.000,96.090 11.000 C 95.844 11.000,95.000 11.806,95.000 12.040 C 95.000 12.110,94.700 12.467,94.333 12.833 C 93.967 13.200,93.667 13.567,93.667 13.649 C 93.667 13.731,93.554 13.841,93.417 13.894 C 93.279 13.946,93.167 14.142,93.167 14.328 C 93.167 14.514,93.100 14.667,93.018 14.667 C 92.936 14.667,92.822 14.854,92.765 15.083 C 92.707 15.313,92.587 15.500,92.497 15.500 C 92.407 15.500,92.333 15.652,92.333 15.839 C 92.333 16.025,92.221 16.220,92.083 16.273 C 91.946 16.326,91.833 16.479,91.833 16.613 C 91.833 16.747,91.721 16.970,91.583 17.107 C 91.446 17.245,91.333 17.652,91.333 18.012 C 91.333 18.372,91.258 18.667,91.167 18.667 C 91.075 18.667,91.000 18.969,91.000 19.339 C 91.000 19.782,90.915 20.043,90.750 20.106 C 90.550 20.183,90.500 20.547,90.500 21.917 C 90.500 23.287,90.450 23.650,90.250 23.727 C 90.063 23.799,90.000 24.098,90.000 24.917 C 90.000 25.735,90.063 26.035,90.250 26.106 C 90.450 26.183,90.500 26.547,90.500 27.917 C 90.500 29.287,90.550 29.650,90.750 29.727 C 90.915 29.790,91.000 30.051,91.000 30.495 C 91.000 30.864,91.075 31.167,91.167 31.167 C 91.258 31.167,91.333 31.457,91.333 31.813 C 91.333 32.184,91.440 32.548,91.583 32.667 C 91.721 32.781,91.833 33.017,91.833 33.192 C 91.833 33.367,91.946 33.554,92.083 33.606 C 92.221 33.659,92.333 33.844,92.333 34.018 C 92.333 34.191,92.403 34.333,92.489 34.333 C 92.574 34.333,92.693 34.502,92.754 34.708 C 92.986 35.503,93.256 36.000,93.457 36.000 C 93.572 36.000,93.667 36.080,93.667 36.179 C 93.667 36.277,93.760 36.462,93.875 36.590 C 93.990 36.718,94.271 37.063,94.500 37.357 C 95.296 38.378,97.848 40.765,98.417 41.022 C 98.600 41.104,98.975 41.315,99.250 41.490 C 99.525 41.666,99.884 41.814,100.047 41.821 C 100.210 41.828,100.387 41.946,100.440 42.083 C 100.492 42.221,100.670 42.333,100.833 42.333 C 100.997 42.333,101.174 42.446,101.227 42.583 C 101.290 42.747,101.550 42.833,101.985 42.833 C 102.349 42.833,102.693 42.908,102.750 43.000 C 102.807 43.092,103.151 43.167,103.515 43.167 C 103.950 43.167,104.210 43.253,104.273 43.417 C 104.350 43.618,104.722 43.667,106.167 43.667 C 107.611 43.667,107.983 43.716,108.060 43.917 C 108.192 44.259,109.429 44.259,109.560 43.917 C 109.637 43.717,110.004 43.666,111.370 43.661 C 112.612 43.658,113.172 43.589,113.407 43.411 C 113.585 43.277,113.974 43.167,114.272 43.167 C 114.570 43.167,114.860 43.092,114.917 43.000 C 114.973 42.908,115.315 42.833,115.677 42.833 C 116.149 42.833,116.333 42.763,116.333 42.583 C 116.333 42.428,116.491 42.333,116.750 42.333 C 116.979 42.333,117.167 42.272,117.167 42.198 C 117.167 42.123,117.535 41.901,117.986 41.705 C 118.437 41.508,118.853 41.269,118.912 41.173 C 118.971 41.078,119.120 41.000,119.243 41.000 C 119.462 41.000,120.074 40.529,121.028 39.625 C 121.294 39.373,121.541 39.167,121.576 39.167 C 121.678 39.167,122.667 38.152,122.667 38.048 C 122.667 37.997,122.844 37.791,123.060 37.590 C 123.277 37.389,123.594 37.006,123.765 36.738 C 123.936 36.469,124.171 36.190,124.288 36.117 C 124.404 36.043,124.500 35.912,124.500 35.825 C 124.500 35.738,124.642 35.525,124.816 35.351 C 124.989 35.177,125.183 34.727,125.247 34.351 C 125.319 33.927,125.452 33.667,125.598 33.667 C 125.738 33.667,125.833 33.498,125.833 33.250 C 125.833 33.001,125.929 32.833,126.070 32.833 C 126.204 32.833,126.353 32.599,126.413 32.292 C 126.472 31.994,126.580 31.600,126.654 31.417 C 126.961 30.658,127.167 29.426,127.167 28.351 C 127.167 27.538,127.239 27.148,127.417 27.000 C 127.611 26.839,127.667 26.389,127.667 24.991 C 127.667 23.613,127.608 23.132,127.417 22.940 C 127.242 22.765,127.167 22.338,127.167 21.514 C 127.167 20.411,126.963 19.182,126.654 18.417 C 126.580 18.233,126.470 17.835,126.411 17.530 C 126.351 17.226,126.196 16.937,126.068 16.888 C 125.939 16.838,125.833 16.653,125.833 16.477 C 125.833 16.301,125.721 16.113,125.583 16.060 C 125.446 16.008,125.333 15.811,125.333 15.623 C 125.333 15.435,125.146 15.036,124.917 14.735 C 124.688 14.435,124.500 14.128,124.500 14.053 C 124.500 13.978,124.206 13.641,123.848 13.304 C 123.490 12.967,123.148 12.536,123.087 12.346 C 123.027 12.155,122.908 12.000,122.822 12.000 C 122.737 12.000,122.667 11.925,122.667 11.833 C 122.667 11.617,122.049 11.000,121.833 11.000 C 121.742 11.000,121.667 10.926,121.667 10.837 C 121.667 10.747,121.479 10.626,121.250 10.568 C 121.021 10.511,120.833 10.362,120.833 10.238 C 120.833 10.113,120.688 9.934,120.509 9.838 C 120.331 9.743,119.949 9.449,119.660 9.185 C 119.100 8.674,117.516 7.833,117.112 7.833 C 116.978 7.833,116.826 7.721,116.773 7.583 C 116.716 7.435,116.466 7.333,116.157 7.333 C 115.839 7.333,115.529 7.203,115.360 6.998 C 115.133 6.723,114.800 6.644,113.502 6.554 C 112.541 6.487,111.834 6.357,111.698 6.222 C 111.372 5.896,105.528 5.900,105.403 6.227 M176.708 25.028 L 176.750 43.583 183.353 43.627 C 189.077 43.665,189.984 43.637,190.165 43.419 C 190.326 43.225,190.754 43.167,192.011 43.167 C 192.922 43.167,193.693 43.093,193.750 43.000 C 193.807 42.908,194.177 42.833,194.573 42.833 C 195.009 42.833,195.374 42.735,195.500 42.583 C 195.614 42.446,195.915 42.333,196.169 42.333 C 196.426 42.333,196.674 42.222,196.727 42.083 C 196.780 41.946,196.975 41.833,197.161 41.833 C 197.348 41.833,197.500 41.762,197.500 41.674 C 197.500 41.587,197.781 41.383,198.125 41.221 C 199.051 40.784,200.735 39.027,201.157 38.058 C 201.243 37.861,201.392 37.650,201.490 37.590 C 201.587 37.530,201.667 37.344,201.667 37.177 C 201.667 37.011,201.779 36.781,201.917 36.667 C 202.060 36.548,202.167 36.184,202.167 35.813 C 202.167 35.457,202.242 35.167,202.333 35.167 C 202.437 35.167,202.500 34.194,202.500 32.583 C 202.500 30.972,202.437 30.000,202.333 30.000 C 202.242 30.000,202.167 29.709,202.167 29.354 C 202.167 28.983,202.060 28.619,201.917 28.500 C 201.779 28.386,201.667 28.156,201.667 27.989 C 201.667 27.823,201.596 27.643,201.510 27.589 C 201.424 27.536,201.185 27.157,200.980 26.746 C 200.775 26.336,200.546 26.000,200.470 26.000 C 200.395 26.000,200.333 25.887,200.333 25.750 C 200.333 25.613,200.221 25.500,200.083 25.500 C 199.946 25.500,199.833 25.387,199.833 25.250 C 199.833 25.113,199.729 25.000,199.601 25.000 C 199.473 25.000,199.327 24.890,199.275 24.755 C 199.223 24.621,198.925 24.403,198.611 24.272 C 198.297 24.141,197.990 23.951,197.927 23.850 C 197.865 23.749,197.685 23.667,197.527 23.667 C 197.370 23.667,197.106 23.510,196.942 23.318 C 196.728 23.068,196.518 22.994,196.197 23.057 L 195.750 23.144 196.208 22.957 C 196.460 22.853,196.667 22.671,196.667 22.551 C 196.667 22.431,196.760 22.330,196.875 22.327 C 197.093 22.320,198.000 21.115,198.000 20.831 C 198.000 20.741,198.112 20.667,198.250 20.667 C 198.406 20.667,198.500 20.509,198.500 20.250 C 198.500 19.991,198.594 19.833,198.750 19.833 C 198.924 19.833,199.000 19.659,199.000 19.260 C 199.000 18.944,199.075 18.640,199.167 18.583 C 199.266 18.522,199.333 17.443,199.333 15.907 C 199.333 14.302,199.271 13.333,199.167 13.333 C 199.075 13.333,199.000 13.033,199.000 12.667 C 199.000 12.185,198.931 12.000,198.750 12.000 C 198.596 12.000,198.500 11.844,198.500 11.592 C 198.500 11.367,198.406 11.123,198.290 11.050 C 198.175 10.977,197.932 10.635,197.752 10.292 C 197.572 9.948,197.358 9.667,197.276 9.667 C 197.194 9.667,197.165 9.526,197.209 9.354 C 197.274 9.107,197.220 9.061,196.953 9.131 C 196.669 9.205,196.630 9.159,196.712 8.846 C 196.782 8.577,196.747 8.498,196.584 8.560 C 196.460 8.608,196.178 8.466,195.957 8.245 C 195.736 8.024,195.323 7.825,195.039 7.804 C 194.755 7.782,194.537 7.686,194.553 7.590 C 194.570 7.495,194.340 7.393,194.042 7.364 C 193.728 7.334,193.500 7.219,193.500 7.091 C 193.500 6.645,192.769 6.598,184.791 6.536 L 176.665 6.473 176.708 25.028 M290.000 25.073 L 290.000 43.667 296.208 43.661 C 301.403 43.657,302.469 43.616,302.740 43.411 C 302.976 43.233,303.528 43.167,304.772 43.167 C 305.731 43.167,306.526 43.094,306.583 43.000 C 306.640 42.908,307.049 42.833,307.492 42.833 C 308.054 42.833,308.327 42.758,308.394 42.583 C 308.454 42.426,308.709 42.333,309.083 42.333 C 309.457 42.333,309.713 42.241,309.773 42.083 C 309.826 41.946,309.970 41.833,310.092 41.833 C 310.215 41.833,310.668 41.646,311.099 41.417 C 311.530 41.188,311.984 41.000,312.108 41.000 C 312.232 41.000,312.333 40.930,312.333 40.845 C 312.333 40.759,312.487 40.640,312.675 40.581 C 312.863 40.521,313.228 40.272,313.487 40.028 C 314.215 39.338,315.025 38.667,315.127 38.667 C 315.265 38.667,316.167 37.629,316.167 37.470 C 316.167 37.395,316.279 37.333,316.417 37.333 C 316.554 37.333,316.667 37.226,316.667 37.095 C 316.667 36.964,316.763 36.758,316.881 36.637 C 317.392 36.112,318.000 35.198,318.000 34.955 C 318.000 34.809,318.113 34.578,318.251 34.440 C 318.389 34.301,318.518 33.995,318.537 33.759 C 318.557 33.523,318.649 33.355,318.743 33.386 C 318.933 33.450,319.327 32.446,319.331 31.887 C 319.332 31.687,319.446 31.411,319.583 31.274 C 319.721 31.136,319.833 30.728,319.833 30.363 C 319.833 29.929,319.919 29.669,320.083 29.606 C 320.286 29.529,320.333 29.143,320.333 27.589 C 320.333 26.418,320.399 25.667,320.500 25.667 C 320.592 25.667,320.667 25.404,320.667 25.083 C 320.667 24.762,320.592 24.500,320.500 24.500 C 320.398 24.500,320.333 23.693,320.333 22.411 C 320.333 20.709,320.287 20.305,320.083 20.227 C 319.919 20.164,319.833 19.904,319.833 19.470 C 319.833 19.105,319.721 18.698,319.583 18.560 C 319.446 18.422,319.333 18.015,319.333 17.655 C 319.333 17.295,319.258 17.000,319.167 17.000 C 319.075 17.000,319.000 16.810,319.000 16.578 C 319.000 16.346,318.887 16.113,318.750 16.060 C 318.612 16.008,318.500 15.793,318.500 15.583 C 318.500 15.374,318.387 15.159,318.250 15.106 C 318.112 15.054,318.000 14.876,318.000 14.712 C 318.000 14.548,317.813 14.211,317.583 13.964 C 317.354 13.717,317.167 13.434,317.167 13.335 C 317.167 13.237,317.054 13.113,316.917 13.060 C 316.779 13.008,316.667 12.894,316.667 12.808 C 316.667 12.721,316.479 12.477,316.250 12.265 C 316.021 12.052,315.833 11.831,315.833 11.773 C 315.833 11.646,315.204 11.000,315.080 11.000 C 315.033 11.000,314.750 10.756,314.452 10.458 C 313.814 9.822,312.916 9.167,312.682 9.167 C 312.591 9.167,312.457 9.071,312.383 8.954 C 312.214 8.685,311.396 8.160,311.029 8.086 C 310.514 7.982,309.867 7.689,309.756 7.510 C 309.696 7.413,309.314 7.333,308.907 7.333 C 308.385 7.333,308.167 7.265,308.167 7.101 C 308.167 6.635,307.429 6.591,298.792 6.535 L 290.000 6.479 290.000 25.073 M5.268 7.597 C 5.020 8.242,5.159 12.628,5.430 12.732 C 5.575 12.788,7.525 12.833,9.763 12.833 L 13.832 12.833 13.874 28.208 L 13.917 43.583 16.544 43.629 L 19.172 43.675 19.336 43.243 C 19.439 42.972,19.500 37.259,19.500 27.822 L 19.500 12.833 23.486 12.833 C 25.679 12.833,27.591 12.788,27.736 12.732 C 28.076 12.602,28.134 7.867,27.800 7.533 C 27.455 7.188,5.401 7.250,5.268 7.597 M336.792 13.115 C 336.631 13.157,336.500 13.250,336.500 13.322 C 336.500 13.394,336.034 13.501,335.464 13.561 C 334.810 13.629,334.377 13.761,334.289 13.918 C 334.213 14.055,333.921 14.167,333.642 14.167 C 333.003 14.167,331.167 14.996,331.167 15.285 C 331.167 15.403,331.014 15.500,330.828 15.500 C 330.642 15.500,330.446 15.612,330.394 15.750 C 330.341 15.887,330.209 16.000,330.101 16.000 C 329.829 16.000,327.000 18.666,327.000 18.923 C 327.000 19.037,326.887 19.174,326.750 19.227 C 326.612 19.280,326.500 19.420,326.500 19.538 C 326.500 19.656,326.350 19.847,326.167 19.961 C 325.983 20.076,325.833 20.287,325.833 20.430 C 325.833 20.573,325.730 20.794,325.603 20.920 C 325.477 21.047,325.322 21.425,325.259 21.761 C 325.196 22.096,324.999 22.527,324.822 22.717 C 324.645 22.907,324.500 23.279,324.500 23.543 C 324.500 23.808,324.399 24.125,324.276 24.248 C 323.727 24.797,323.769 32.637,324.321 32.782 C 324.522 32.834,324.576 33.009,324.533 33.468 C 324.491 33.916,324.569 34.183,324.821 34.451 C 325.011 34.654,325.167 34.943,325.167 35.093 C 325.167 35.553,326.055 37.333,326.285 37.333 C 326.403 37.333,326.500 37.419,326.500 37.524 C 326.500 37.880,328.852 40.500,329.172 40.500 C 329.261 40.500,329.333 40.570,329.333 40.656 C 329.333 40.742,329.633 40.981,330.000 41.187 C 330.367 41.393,330.667 41.623,330.667 41.697 C 330.667 41.772,330.854 41.833,331.083 41.833 C 331.343 41.833,331.500 41.928,331.500 42.083 C 331.500 42.221,331.641 42.333,331.813 42.333 C 331.985 42.333,332.219 42.446,332.333 42.583 C 332.447 42.721,332.752 42.833,333.011 42.833 C 333.269 42.833,333.527 42.908,333.583 43.000 C 333.640 43.092,333.939 43.167,334.248 43.167 C 334.557 43.167,334.922 43.279,335.060 43.417 C 335.266 43.623,335.923 43.667,338.833 43.667 C 341.743 43.667,342.401 43.623,342.607 43.417 C 342.745 43.279,343.110 43.167,343.419 43.167 C 343.728 43.167,344.027 43.092,344.083 43.000 C 344.140 42.908,344.409 42.833,344.682 42.833 C 344.968 42.833,345.218 42.728,345.273 42.583 C 345.326 42.446,345.513 42.333,345.690 42.333 C 345.866 42.333,346.054 42.221,346.106 42.083 C 346.159 41.946,346.318 41.833,346.460 41.833 C 346.685 41.833,347.521 41.286,348.108 40.756 C 348.213 40.661,348.542 40.396,348.839 40.167 C 349.136 39.938,349.500 39.607,349.648 39.433 C 349.796 39.259,350.048 38.978,350.208 38.808 C 350.369 38.639,350.500 38.425,350.500 38.333 C 350.500 38.242,350.577 38.167,350.672 38.167 C 350.766 38.167,350.894 38.037,350.954 37.879 C 351.015 37.720,351.238 37.430,351.449 37.235 C 351.660 37.039,351.833 36.716,351.833 36.517 C 351.833 36.319,351.946 36.113,352.083 36.060 C 352.221 36.008,352.333 35.785,352.333 35.566 C 352.333 35.322,352.431 35.167,352.583 35.167 C 352.749 35.167,352.833 35.001,352.833 34.677 C 352.833 34.407,352.908 34.140,353.000 34.083 C 353.092 34.027,353.167 33.728,353.167 33.419 C 353.167 33.110,353.279 32.745,353.417 32.607 C 353.599 32.425,353.667 31.980,353.667 30.960 C 353.667 29.990,353.741 29.465,353.911 29.240 C 354.225 28.825,354.225 28.008,353.911 27.593 C 353.744 27.372,353.667 26.853,353.667 25.956 C 353.667 25.011,353.597 24.573,353.417 24.393 C 353.279 24.255,353.167 23.890,353.167 23.581 C 353.167 23.272,353.092 22.973,353.000 22.917 C 352.908 22.860,352.833 22.593,352.833 22.323 C 352.833 21.999,352.749 21.833,352.583 21.833 C 352.431 21.833,352.333 21.678,352.333 21.434 C 352.333 21.215,352.221 20.992,352.083 20.940 C 351.946 20.887,351.833 20.722,351.833 20.574 C 351.833 20.267,350.849 18.833,350.638 18.833 C 350.562 18.833,350.500 18.758,350.500 18.666 C 350.500 18.516,349.804 17.811,348.322 16.458 C 348.046 16.206,347.710 16.000,347.577 16.000 C 347.443 16.000,347.333 15.887,347.333 15.750 C 347.333 15.602,347.180 15.500,346.957 15.500 C 346.750 15.500,346.487 15.350,346.372 15.167 C 346.258 14.983,346.039 14.833,345.887 14.833 C 345.734 14.833,345.475 14.712,345.312 14.564 C 345.148 14.415,344.654 14.256,344.215 14.209 C 343.776 14.162,343.293 14.017,343.142 13.885 C 342.991 13.754,342.430 13.601,341.895 13.546 C 341.359 13.490,340.821 13.345,340.699 13.223 C 340.482 13.006,337.520 12.924,336.792 13.115 M369.465 13.226 C 369.341 13.350,368.892 13.503,368.467 13.567 C 368.042 13.631,367.604 13.792,367.493 13.925 C 367.383 14.058,367.058 14.168,366.771 14.169 C 366.485 14.170,366.063 14.281,365.833 14.414 C 365.604 14.547,365.210 14.741,364.958 14.844 C 364.706 14.948,364.500 15.130,364.500 15.248 C 364.500 15.367,364.318 15.510,364.095 15.566 C 363.872 15.621,363.412 15.930,363.072 16.250 C 362.732 16.571,362.389 16.833,362.310 16.833 C 362.231 16.833,362.167 16.946,362.167 17.083 C 362.167 17.221,362.071 17.333,361.954 17.333 C 361.740 17.333,361.203 17.895,360.583 18.767 C 360.400 19.024,360.119 19.370,359.958 19.534 C 359.798 19.699,359.667 19.900,359.667 19.982 C 359.667 20.064,359.562 20.171,359.433 20.221 C 359.305 20.270,359.145 20.634,359.078 21.029 C 359.010 21.434,358.821 21.844,358.645 21.967 C 358.474 22.087,358.333 22.344,358.333 22.538 C 358.333 22.732,358.218 23.018,358.076 23.175 C 357.887 23.383,357.792 24.006,357.718 25.521 C 357.655 26.830,357.535 27.703,357.392 27.912 C 357.108 28.327,357.107 28.798,357.390 29.341 C 357.517 29.584,357.659 30.656,357.722 31.841 C 357.805 33.397,357.896 33.963,358.083 34.102 C 358.221 34.203,358.333 34.436,358.333 34.618 C 358.333 34.799,358.483 35.084,358.667 35.250 C 358.850 35.416,359.000 35.629,359.000 35.723 C 359.000 36.123,359.773 37.442,360.363 38.050 C 360.713 38.411,361.000 38.774,361.000 38.856 C 361.000 39.030,361.777 39.800,362.912 40.750 C 363.350 41.117,363.806 41.510,363.926 41.625 C 364.045 41.740,364.263 41.833,364.410 41.833 C 364.557 41.833,364.720 41.946,364.773 42.083 C 364.826 42.221,365.002 42.333,365.164 42.333 C 365.326 42.333,365.553 42.446,365.667 42.583 C 365.781 42.721,366.048 42.833,366.261 42.833 C 366.473 42.833,366.693 42.908,366.750 43.000 C 366.807 43.092,367.113 43.167,367.432 43.167 C 367.792 43.167,368.047 43.261,368.106 43.417 C 368.182 43.613,368.521 43.667,369.690 43.667 C 370.858 43.667,371.198 43.720,371.273 43.917 C 371.326 44.054,371.551 44.167,371.773 44.167 C 371.995 44.167,372.220 44.054,372.273 43.917 C 372.350 43.717,372.713 43.667,374.083 43.667 C 375.453 43.667,375.817 43.616,375.894 43.417 C 375.961 43.240,376.236 43.167,376.828 43.167 C 377.289 43.167,377.667 43.092,377.667 43.000 C 377.667 42.908,377.996 42.833,378.399 42.833 C 378.896 42.833,379.162 42.753,379.227 42.583 C 379.287 42.428,379.541 42.333,379.902 42.333 C 380.733 42.333,380.742 42.292,380.833 38.150 L 380.917 34.384 380.240 34.358 C 379.775 34.341,379.455 34.434,379.217 34.655 C 379.027 34.833,378.594 35.030,378.256 35.093 C 377.917 35.157,377.601 35.312,377.552 35.438 C 377.504 35.564,377.291 35.667,377.079 35.667 C 376.521 35.667,376.167 35.835,376.167 36.101 C 376.167 36.240,375.983 36.339,375.708 36.347 C 375.456 36.354,374.613 36.417,373.833 36.487 C 371.782 36.671,369.194 36.416,368.829 35.994 C 368.672 35.814,368.401 35.667,368.226 35.667 C 368.051 35.667,367.791 35.535,367.648 35.375 C 367.506 35.215,367.152 34.877,366.861 34.624 C 366.571 34.371,366.333 34.052,366.333 33.915 C 366.333 33.779,366.221 33.667,366.083 33.667 C 365.929 33.667,365.833 33.510,365.833 33.260 C 365.833 33.036,365.758 32.807,365.667 32.750 C 365.575 32.693,365.500 32.473,365.500 32.261 C 365.500 32.048,365.387 31.781,365.250 31.667 C 364.959 31.425,364.870 25.833,365.156 25.833 C 365.243 25.833,365.364 25.496,365.425 25.083 C 365.487 24.671,365.604 24.333,365.686 24.333 C 365.767 24.333,365.833 24.181,365.833 23.995 C 365.833 23.809,365.941 23.615,366.073 23.564 C 366.205 23.514,366.360 23.257,366.418 22.994 C 366.476 22.730,366.667 22.469,366.845 22.413 C 367.022 22.357,367.167 22.241,367.167 22.155 C 367.167 22.070,367.279 22.000,367.417 22.000 C 367.554 22.000,367.667 21.887,367.667 21.750 C 367.667 21.613,367.809 21.500,367.982 21.500 C 368.156 21.500,368.341 21.387,368.394 21.250 C 368.446 21.112,368.642 21.000,368.828 21.000 C 369.014 21.000,369.167 20.925,369.167 20.833 C 369.167 20.742,369.544 20.667,370.005 20.667 C 370.597 20.667,370.872 20.593,370.940 20.417 C 371.006 20.243,371.278 20.167,371.831 20.167 C 372.334 20.167,372.702 20.258,372.833 20.417 C 372.974 20.586,373.352 20.667,374.011 20.667 C 374.544 20.667,375.027 20.742,375.083 20.833 C 375.140 20.925,375.409 21.000,375.682 21.000 C 375.968 21.000,376.218 21.105,376.273 21.250 C 376.328 21.393,376.577 21.500,376.856 21.500 C 377.136 21.500,377.385 21.607,377.440 21.750 C 377.492 21.887,377.673 22.000,377.841 22.000 C 378.009 22.000,378.190 22.069,378.242 22.154 C 378.294 22.238,378.561 22.357,378.835 22.417 C 379.109 22.477,379.333 22.596,379.333 22.680 C 379.333 22.852,380.165 22.887,380.570 22.732 C 380.799 22.644,380.833 22.158,380.833 19.008 C 380.833 15.077,380.777 14.833,379.862 14.833 C 379.663 14.833,379.500 14.762,379.500 14.675 C 379.500 14.476,378.425 14.169,377.729 14.168 C 377.442 14.167,377.120 14.061,377.012 13.931 C 376.905 13.802,376.427 13.642,375.950 13.577 C 375.473 13.512,374.935 13.355,374.755 13.229 C 374.289 12.904,369.789 12.901,369.465 13.226 M188.333 13.492 C 188.333 13.580,188.615 13.782,188.958 13.941 C 190.482 14.648,191.395 17.188,190.417 18.000 C 190.279 18.114,190.167 18.311,190.167 18.437 C 190.167 18.563,190.092 18.667,190.000 18.667 C 189.908 18.667,189.830 18.760,189.827 18.875 C 189.819 19.112,188.485 19.778,187.707 19.934 C 187.421 19.991,187.148 20.141,187.099 20.269 C 187.040 20.424,186.733 20.500,186.172 20.500 L 185.333 20.500 185.333 16.917 L 185.333 13.333 186.833 13.333 C 187.673 13.333,188.333 13.403,188.333 13.492 M132.958 13.617 L 132.500 13.689 132.500 28.491 C 132.500 40.861,132.538 43.324,132.730 43.483 C 132.890 43.616,133.991 43.660,136.355 43.629 L 139.750 43.583 139.794 37.708 L 139.838 31.833 144.745 31.833 L 149.653 31.833 149.842 31.203 C 150.054 30.496,150.004 25.552,149.782 25.208 C 149.679 25.049,148.483 25.000,144.740 25.000 L 139.833 25.000 139.833 22.588 L 139.833 20.176 144.833 20.130 C 148.058 20.100,149.855 20.143,149.894 20.250 C 149.927 20.342,149.958 18.866,149.963 16.970 L 149.972 13.523 141.695 13.534 C 137.142 13.540,133.210 13.577,132.958 13.617 M154.625 13.619 L 154.167 13.689 154.167 28.491 C 154.167 40.861,154.204 43.324,154.396 43.483 C 154.556 43.616,155.658 43.660,158.021 43.629 L 161.417 43.583 161.460 37.708 L 161.504 31.833 166.399 31.833 L 171.294 31.833 171.395 31.458 C 171.527 30.967,171.530 25.605,171.399 25.264 C 171.310 25.032,170.712 25.000,166.399 25.000 L 161.500 25.000 161.500 22.583 L 161.500 20.167 166.399 20.167 C 170.712 20.167,171.310 20.135,171.399 19.903 C 171.691 19.142,171.503 13.847,171.178 13.673 C 170.867 13.506,155.692 13.458,154.625 13.619 M206.000 13.648 L 205.583 13.765 205.541 28.410 C 205.502 41.889,205.520 43.080,205.776 43.362 C 206.041 43.654,206.471 43.668,214.402 43.627 L 222.750 43.583 222.795 40.250 C 222.836 37.264,222.811 36.896,222.555 36.709 C 222.144 36.408,213.232 36.408,213.110 36.708 C 213.064 36.823,213.020 35.774,213.013 34.378 L 213.000 31.838 217.875 31.794 L 222.750 31.750 222.795 28.375 L 222.840 25.000 217.920 25.000 L 213.000 25.000 213.000 22.583 L 213.000 20.167 217.910 20.167 L 222.820 20.167 222.868 16.839 L 222.917 13.511 214.667 13.521 C 210.129 13.526,206.229 13.583,206.000 13.648 M237.667 13.710 C 237.392 13.851,237.231 14.094,237.194 14.421 C 237.163 14.693,237.032 14.977,236.902 15.050 C 236.773 15.123,236.667 15.398,236.667 15.661 C 236.667 15.924,236.584 16.167,236.482 16.200 C 236.278 16.268,235.840 17.412,235.836 17.887 C 235.834 18.054,235.721 18.303,235.583 18.440 C 235.446 18.578,235.333 18.910,235.333 19.179 C 235.333 19.501,235.249 19.667,235.083 19.667 C 234.929 19.667,234.833 19.823,234.833 20.073 C 234.833 20.297,234.758 20.527,234.667 20.583 C 234.575 20.640,234.500 20.944,234.500 21.260 C 234.500 21.659,234.424 21.833,234.250 21.833 C 234.093 21.833,234.000 21.992,234.000 22.262 C 234.000 22.498,233.887 22.803,233.750 22.940 C 233.612 23.078,233.500 23.402,233.500 23.661 C 233.500 23.925,233.390 24.173,233.250 24.227 C 233.112 24.280,233.000 24.471,233.000 24.652 C 233.000 24.832,232.925 25.027,232.833 25.083 C 232.742 25.140,232.667 25.398,232.667 25.656 C 232.667 25.914,232.554 26.219,232.417 26.333 C 232.279 26.447,232.167 26.750,232.167 27.007 C 232.167 27.263,232.084 27.500,231.982 27.534 C 231.785 27.599,231.340 28.739,231.336 29.188 C 231.334 29.337,231.221 29.553,231.083 29.667 C 230.946 29.781,230.833 30.092,230.833 30.359 C 230.833 30.636,230.726 30.885,230.583 30.940 C 230.441 30.994,230.333 31.243,230.333 31.518 C 230.333 31.783,230.258 32.000,230.167 32.000 C 230.075 32.000,230.000 32.182,230.000 32.405 C 230.000 32.627,229.887 32.922,229.750 33.060 C 229.612 33.197,229.500 33.494,229.500 33.720 C 229.500 33.946,229.387 34.174,229.250 34.227 C 229.093 34.287,229.000 34.542,229.000 34.911 C 229.000 35.323,228.925 35.500,228.750 35.500 C 228.596 35.500,228.500 35.656,228.500 35.907 C 228.500 36.131,228.425 36.360,228.333 36.417 C 228.242 36.473,228.167 36.743,228.167 37.015 C 228.167 37.302,228.061 37.551,227.917 37.606 C 227.777 37.660,227.667 37.908,227.667 38.167 C 227.667 38.426,227.556 38.673,227.417 38.727 C 227.260 38.787,227.167 39.042,227.167 39.411 C 227.167 39.735,227.092 40.000,227.000 40.000 C 226.908 40.000,226.833 40.179,226.833 40.399 C 226.833 40.618,226.721 40.841,226.583 40.894 C 226.440 40.948,226.333 41.197,226.333 41.474 C 226.333 41.741,226.217 42.056,226.075 42.174 C 225.908 42.312,225.834 42.599,225.867 42.986 L 225.917 43.583 229.131 43.629 C 232.623 43.678,233.149 43.559,233.161 42.720 C 233.164 42.521,233.279 42.245,233.417 42.107 C 233.554 41.970,233.667 41.672,233.667 41.446 C 233.667 41.220,233.779 40.992,233.917 40.940 C 234.057 40.886,234.167 40.638,234.167 40.372 C 234.167 40.112,234.256 39.811,234.364 39.702 C 234.473 39.594,234.588 39.335,234.619 39.127 C 234.651 38.920,234.749 38.725,234.838 38.694 C 234.927 38.664,235.000 38.458,235.000 38.236 L 235.000 37.833 240.333 37.833 L 245.667 37.833 245.667 38.250 C 245.667 38.509,245.761 38.667,245.917 38.667 C 246.092 38.667,246.167 38.843,246.167 39.255 C 246.167 39.625,246.260 39.880,246.417 39.940 C 246.554 39.992,246.667 40.188,246.667 40.373 C 246.667 40.983,247.048 42.000,247.276 42.000 C 247.416 42.000,247.502 42.202,247.505 42.542 C 247.515 43.583,247.876 43.680,251.536 43.629 L 254.750 43.583 254.803 42.936 C 254.832 42.581,254.776 42.209,254.678 42.111 C 254.580 42.013,254.500 41.758,254.500 41.545 C 254.500 41.331,254.387 41.113,254.250 41.060 C 254.111 41.007,254.000 40.759,254.000 40.503 C 254.000 40.249,253.887 39.947,253.750 39.833 C 253.612 39.719,253.500 39.442,253.500 39.218 C 253.500 38.993,253.387 38.697,253.250 38.560 C 253.112 38.422,253.000 38.165,253.000 37.988 C 253.000 37.811,252.925 37.667,252.833 37.667 C 252.742 37.667,252.667 37.439,252.667 37.161 C 252.667 36.866,252.563 36.616,252.417 36.560 C 252.279 36.508,252.167 36.280,252.167 36.054 C 252.167 35.828,252.054 35.530,251.917 35.393 C 251.779 35.255,251.667 34.965,251.667 34.748 C 251.667 34.531,251.592 34.307,251.500 34.250 C 251.408 34.193,251.333 33.926,251.333 33.657 C 251.333 33.332,251.249 33.167,251.083 33.167 C 250.916 33.167,250.833 32.999,250.833 32.661 C 250.833 32.366,250.729 32.116,250.583 32.060 C 250.441 32.006,250.333 31.757,250.333 31.482 C 250.333 31.217,250.258 31.000,250.167 31.000 C 250.075 31.000,250.000 30.775,250.000 30.500 C 250.000 30.167,249.917 30.000,249.750 30.000 C 249.575 30.000,249.500 29.823,249.500 29.411 C 249.500 29.042,249.407 28.787,249.250 28.727 C 249.112 28.674,249.000 28.446,249.000 28.220 C 249.000 27.994,248.887 27.697,248.750 27.560 C 248.612 27.422,248.500 27.127,248.500 26.905 C 248.500 26.682,248.425 26.500,248.333 26.500 C 248.242 26.500,248.167 26.275,248.167 26.000 C 248.167 25.667,248.083 25.500,247.917 25.500 C 247.752 25.500,247.667 25.336,247.667 25.020 C 247.667 24.757,247.554 24.447,247.417 24.333 C 247.279 24.219,247.167 23.952,247.167 23.739 C 247.167 23.527,247.092 23.307,247.000 23.250 C 246.908 23.193,246.833 22.969,246.833 22.752 C 246.833 22.535,246.721 22.245,246.583 22.107 C 246.446 21.970,246.333 21.664,246.333 21.429 C 246.333 21.159,246.241 21.000,246.083 21.000 C 245.917 21.000,245.833 20.833,245.833 20.500 C 245.833 20.225,245.762 20.000,245.674 20.000 C 245.587 20.000,245.466 19.737,245.406 19.417 C 245.345 19.096,245.230 18.833,245.148 18.833 C 245.067 18.833,245.000 18.618,245.000 18.354 C 245.000 18.090,244.887 17.781,244.750 17.667 C 244.612 17.553,244.500 17.243,244.500 16.980 C 244.500 16.664,244.414 16.500,244.250 16.500 C 244.083 16.500,244.000 16.333,244.000 16.000 C 244.000 15.725,243.925 15.500,243.833 15.500 C 243.742 15.500,243.667 15.279,243.667 15.008 C 243.667 14.725,243.550 14.451,243.392 14.363 C 243.221 14.267,243.150 14.082,243.204 13.875 C 243.313 13.457,238.442 13.312,237.667 13.710 M253.750 17.135 L 253.750 20.750 257.042 20.702 L 260.333 20.653 260.333 31.973 C 260.333 41.388,260.372 43.325,260.563 43.483 C 260.723 43.616,261.803 43.660,264.105 43.629 L 267.417 43.583 267.459 32.125 L 267.502 20.667 270.718 20.667 C 274.706 20.667,274.333 21.046,274.333 16.988 L 274.333 13.709 273.649 13.600 C 273.272 13.540,268.641 13.497,263.357 13.505 L 253.750 13.520 253.750 17.135 M304.000 14.508 C 304.000 14.595,304.295 14.667,304.655 14.667 C 305.015 14.667,305.422 14.779,305.560 14.917 C 305.697 15.054,305.994 15.167,306.220 15.167 C 306.446 15.167,306.674 15.279,306.727 15.417 C 306.780 15.554,306.975 15.667,307.160 15.667 C 307.486 15.667,308.107 16.102,308.647 16.708 C 308.790 16.869,308.995 17.000,309.102 17.000 C 309.209 17.000,309.344 17.188,309.402 17.417 C 309.459 17.646,309.574 17.833,309.657 17.833 C 309.739 17.833,309.855 18.053,309.914 18.322 C 309.973 18.590,310.129 18.900,310.261 19.009 C 310.392 19.118,310.500 19.348,310.500 19.520 C 310.500 19.693,310.669 20.002,310.875 20.208 C 311.244 20.578,311.250 20.647,311.250 24.862 C 311.250 29.069,311.244 29.146,310.875 29.539 C 310.669 29.759,310.500 30.065,310.500 30.219 C 310.500 30.374,310.428 30.500,310.340 30.500 C 310.252 30.500,310.099 30.800,310.000 31.167 C 309.901 31.533,309.746 31.833,309.655 31.833 C 309.564 31.833,309.443 31.953,309.387 32.100 C 309.268 32.410,308.542 33.167,308.363 33.167 C 308.296 33.167,308.112 33.317,307.955 33.500 C 307.798 33.683,307.517 33.833,307.330 33.833 C 307.143 33.833,306.946 33.946,306.894 34.083 C 306.841 34.221,306.666 34.333,306.505 34.333 C 306.343 34.333,306.003 34.498,305.747 34.699 C 305.315 35.038,305.051 35.071,301.974 35.157 L 298.666 35.250 298.666 24.750 L 298.666 14.250 301.333 14.300 C 302.876 14.328,304.000 14.416,304.000 14.508 M31.874 28.976 L 31.917 43.583 34.127 43.630 L 36.338 43.676 36.502 43.244 C 36.600 42.987,36.667 40.228,36.667 36.447 L 36.667 30.083 42.792 30.083 L 48.917 30.083 49.000 36.833 L 49.083 43.583 51.248 43.630 C 53.146 43.671,53.440 43.641,53.625 43.388 C 53.792 43.159,53.836 40.089,53.831 28.726 L 53.826 14.353 51.413 14.353 L 49.000 14.353 49.000 19.926 L 49.000 25.500 42.833 25.500 L 36.667 25.500 36.667 20.179 C 36.667 13.722,36.937 14.310,33.980 14.344 L 31.832 14.368 31.874 28.976 M58.541 28.958 L 58.583 43.583 66.667 43.583 L 74.750 43.583 74.796 41.133 C 74.855 38.021,75.493 38.313,68.753 38.371 L 63.333 38.417 63.333 34.294 L 63.333 30.171 69.042 30.127 L 74.750 30.083 74.796 27.792 L 74.843 25.500 69.116 25.500 C 65.966 25.500,63.358 25.469,63.319 25.431 C 63.281 25.393,63.272 23.968,63.299 22.264 L 63.348 19.167 69.090 19.167 L 74.833 19.167 74.833 16.851 C 74.833 14.893,74.793 14.520,74.570 14.434 C 74.425 14.379,70.749 14.333,66.402 14.333 L 58.498 14.333 58.541 28.958 M111.417 14.500 C 111.473 14.592,111.769 14.667,112.073 14.667 C 112.377 14.667,112.719 14.779,112.833 14.917 C 112.947 15.054,113.184 15.167,113.359 15.167 C 113.534 15.167,113.720 15.279,113.773 15.417 C 113.826 15.554,113.979 15.667,114.114 15.667 C 114.321 15.667,114.610 15.894,115.545 16.794 C 115.983 17.216,116.662 18.113,116.664 18.274 C 116.665 18.379,116.779 18.508,116.917 18.560 C 117.054 18.613,117.167 18.804,117.167 18.985 C 117.167 19.166,117.233 19.355,117.314 19.405 C 117.396 19.455,117.512 19.760,117.572 20.081 C 117.632 20.403,117.753 20.667,117.841 20.667 C 117.928 20.667,118.000 21.079,118.000 21.583 C 118.000 22.287,118.058 22.500,118.250 22.500 C 118.460 22.500,118.500 22.871,118.500 24.839 C 118.500 26.764,118.456 27.194,118.250 27.273 C 118.071 27.342,118.000 27.623,118.000 28.268 C 118.000 28.762,117.931 29.167,117.847 29.167 C 117.762 29.167,117.644 29.392,117.583 29.667 C 117.523 29.942,117.404 30.167,117.320 30.167 C 117.236 30.167,117.167 30.349,117.167 30.571 C 117.167 30.794,117.054 31.089,116.917 31.226 C 116.779 31.364,116.667 31.557,116.667 31.655 C 116.667 31.753,116.594 31.833,116.505 31.833 C 116.416 31.833,116.173 32.130,115.964 32.492 C 115.756 32.854,115.416 33.227,115.209 33.322 C 115.003 33.416,114.833 33.569,114.833 33.663 C 114.833 33.757,114.721 33.833,114.583 33.833 C 114.446 33.833,114.333 33.899,114.333 33.980 C 114.333 34.060,114.107 34.220,113.829 34.335 C 113.552 34.450,113.266 34.650,113.193 34.781 C 113.114 34.921,112.673 35.058,112.115 35.115 C 111.594 35.169,111.084 35.315,110.981 35.440 C 110.711 35.765,106.907 35.766,106.783 35.442 C 106.731 35.308,106.322 35.178,105.778 35.122 C 105.164 35.058,104.745 34.912,104.513 34.680 C 104.323 34.489,104.092 34.333,104.000 34.333 C 103.815 34.333,103.460 34.029,102.292 32.870 C 101.856 32.437,101.500 32.027,101.500 31.959 C 101.500 31.890,101.388 31.833,101.250 31.833 C 101.112 31.833,101.000 31.700,101.000 31.537 C 101.000 31.374,100.896 31.093,100.770 30.912 C 100.643 30.731,100.530 30.508,100.519 30.417 C 100.463 29.964,100.123 29.171,99.908 28.993 C 99.759 28.869,99.667 28.488,99.667 27.991 C 99.667 27.502,99.570 27.093,99.417 26.940 C 99.098 26.622,99.050 23.400,99.362 23.296 C 99.473 23.259,99.591 22.768,99.635 22.164 C 99.678 21.563,99.815 20.995,99.947 20.862 C 100.077 20.733,100.227 20.409,100.280 20.143 C 100.333 19.877,100.442 19.619,100.522 19.570 C 100.601 19.521,100.667 19.360,100.667 19.214 C 100.667 19.067,100.963 18.555,101.324 18.076 C 101.686 17.597,101.936 17.158,101.880 17.102 C 101.824 17.046,101.903 17.000,102.056 17.000 C 102.208 17.000,102.333 16.887,102.333 16.750 C 102.333 16.612,102.446 16.500,102.583 16.500 C 102.721 16.500,102.833 16.415,102.833 16.310 C 102.833 16.052,103.349 15.678,103.714 15.672 C 103.877 15.669,104.054 15.554,104.106 15.417 C 104.159 15.279,104.347 15.167,104.523 15.167 C 104.699 15.167,104.887 15.054,104.940 14.917 C 104.992 14.779,105.234 14.666,105.476 14.664 C 105.718 14.663,106.029 14.589,106.167 14.500 C 106.502 14.283,111.283 14.283,111.417 14.500 M341.060 20.417 C 341.120 20.574,341.375 20.667,341.745 20.667 C 342.068 20.667,342.333 20.742,342.333 20.833 C 342.333 20.925,342.483 21.000,342.667 21.000 C 342.850 21.000,343.000 21.077,343.000 21.172 C 343.000 21.266,343.126 21.392,343.279 21.451 C 343.629 21.585,344.085 22.037,344.327 22.487 C 344.428 22.678,344.613 22.833,344.738 22.833 C 344.862 22.833,345.015 23.039,345.078 23.290 C 345.142 23.541,345.270 23.794,345.365 23.853 C 345.459 23.911,345.576 24.315,345.626 24.751 C 345.686 25.286,345.802 25.567,345.982 25.614 C 346.385 25.719,346.382 30.770,345.979 31.218 C 345.830 31.383,345.669 31.796,345.622 32.134 C 345.450 33.361,345.534 33.227,343.823 35.008 C 342.719 36.157,342.472 36.333,341.823 36.429 C 341.416 36.490,340.917 36.643,340.714 36.770 C 340.172 37.108,337.116 37.091,336.832 36.748 C 336.716 36.609,336.538 36.511,336.436 36.529 C 336.027 36.603,335.218 36.302,334.996 35.994 C 334.866 35.814,334.701 35.667,334.630 35.667 C 334.504 35.667,334.148 35.370,333.375 34.621 C 333.169 34.421,333.000 34.159,333.000 34.040 C 333.000 33.921,332.887 33.780,332.750 33.727 C 332.612 33.674,332.500 33.460,332.500 33.250 C 332.500 33.040,332.387 32.826,332.250 32.773 C 332.112 32.720,332.000 32.494,332.000 32.269 C 332.000 32.045,331.924 31.836,331.831 31.805 C 331.738 31.774,331.615 31.242,331.557 30.624 C 331.499 30.006,331.380 29.500,331.293 29.500 C 331.128 29.500,331.176 28.835,331.497 26.667 C 331.599 25.980,331.754 25.346,331.841 25.259 C 331.928 25.172,332.000 24.925,332.000 24.711 C 332.000 24.498,332.112 24.280,332.250 24.227 C 332.387 24.174,332.500 23.995,332.500 23.830 C 332.500 23.548,332.682 23.286,333.625 22.212 C 333.831 21.977,334.000 21.721,334.000 21.642 C 334.000 21.564,334.115 21.500,334.255 21.500 C 334.396 21.500,334.554 21.387,334.606 21.250 C 334.659 21.112,334.844 21.000,335.018 21.000 C 335.191 21.000,335.333 20.925,335.333 20.833 C 335.333 20.742,335.550 20.667,335.816 20.667 C 336.090 20.667,336.339 20.559,336.394 20.417 C 336.472 20.212,336.892 20.167,338.727 20.167 C 340.562 20.167,340.982 20.212,341.060 20.417 M240.667 26.108 C 240.667 26.238,240.779 26.387,240.917 26.440 C 241.056 26.493,241.167 26.741,241.167 26.997 C 241.167 27.251,241.279 27.553,241.417 27.667 C 241.554 27.781,241.667 28.043,241.667 28.250 C 241.667 28.457,241.779 28.719,241.917 28.833 C 242.054 28.947,242.168 29.163,242.169 29.312 C 242.173 29.761,242.619 30.901,242.816 30.966 C 242.917 31.000,243.000 31.209,243.000 31.431 L 243.000 31.833 240.262 31.833 L 237.523 31.833 237.679 31.292 C 237.764 30.994,237.909 30.725,238.000 30.694 C 238.092 30.664,238.167 30.428,238.167 30.171 C 238.167 29.908,238.277 29.660,238.417 29.606 C 238.560 29.551,238.667 29.303,238.667 29.023 C 238.667 28.744,238.773 28.495,238.917 28.440 C 239.063 28.384,239.167 28.134,239.167 27.839 C 239.167 27.561,239.242 27.333,239.333 27.333 C 239.425 27.333,239.500 27.071,239.500 26.750 C 239.500 26.343,239.575 26.167,239.750 26.167 C 239.922 26.167,240.000 25.994,240.000 25.611 C 240.000 25.306,240.051 25.004,240.114 24.942 C 240.237 24.818,240.667 25.723,240.667 26.108 M146.718 25.458 C 145.600 25.487,143.725 25.487,142.551 25.458 C 141.377 25.429,142.292 25.406,144.583 25.406 C 146.875 25.405,147.836 25.429,146.718 25.458 M168.198 25.458 C 166.979 25.486,165.029 25.486,163.865 25.458 C 162.702 25.429,163.700 25.406,166.083 25.406 C 168.467 25.406,169.418 25.429,168.198 25.458 M219.718 25.458 C 218.509 25.486,216.484 25.486,215.218 25.458 C 213.952 25.430,214.942 25.406,217.417 25.406 C 219.892 25.406,220.927 25.429,219.718 25.458 M189.560 27.583 C 189.700 27.724,190.107 27.833,190.488 27.833 C 190.861 27.833,191.167 27.910,191.167 28.004 C 191.167 28.098,191.354 28.246,191.583 28.333 C 191.813 28.420,192.000 28.569,192.000 28.663 C 192.000 28.756,192.094 28.833,192.210 28.833 C 192.856 28.833,193.333 30.288,193.333 32.257 C 193.333 33.307,193.276 34.167,193.206 34.167 C 193.136 34.167,193.005 34.329,192.915 34.528 C 192.824 34.727,192.603 34.971,192.424 35.070 C 192.244 35.169,191.995 35.344,191.870 35.458 C 191.745 35.573,191.499 35.667,191.323 35.667 C 191.147 35.667,190.909 35.817,190.795 36.000 C 190.601 36.310,190.406 36.333,187.960 36.333 L 185.333 36.333 185.333 31.833 L 185.333 27.333 187.321 27.333 C 188.866 27.333,189.365 27.389,189.560 27.583 M161.291 39.802 C 161.263 41.148,161.240 40.000,161.241 37.250 C 161.241 34.500,161.263 33.398,161.291 34.802 C 161.319 36.206,161.319 38.456,161.291 39.802 " stroke="none" fill="#242424" fill-rule="evenodd"></path><path id="path1" d="M142.551 25.458 C 143.725 25.487,145.600 25.487,146.718 25.458 C 147.836 25.429,146.875 25.405,144.583 25.406 C 142.292 25.406,141.377 25.429,142.551 25.458 M163.865 25.458 C 165.029 25.486,166.979 25.486,168.198 25.458 C 169.418 25.429,168.467 25.406,166.083 25.406 C 163.700 25.406,162.702 25.429,163.865 25.458 M215.218 25.458 C 216.484 25.486,218.509 25.486,219.718 25.458 C 220.927 25.429,219.892 25.406,217.417 25.406 C 214.942 25.406,213.952 25.430,215.218 25.458 M161.241 37.250 C 161.240 40.000,161.263 41.148,161.291 39.802 C 161.319 38.456,161.319 36.206,161.291 34.802 C 161.263 33.398,161.241 34.500,161.241 37.250 " stroke="none" fill="#2c2c2c" fill-rule="evenodd"></path><path id="path2" d="M388.378 32.833 C 388.221 33.017,387.970 33.167,387.821 33.167 C 387.671 33.167,387.345 33.355,387.096 33.586 C 386.847 33.817,386.572 33.961,386.484 33.907 C 386.397 33.853,386.336 33.870,386.349 33.946 C 386.417 34.337,386.310 34.527,386.075 34.436 C 385.932 34.382,385.856 34.402,385.906 34.482 C 385.955 34.562,385.846 34.817,385.664 35.048 C 385.482 35.280,385.333 35.584,385.333 35.725 C 385.333 35.865,385.268 36.021,385.188 36.070 C 384.592 36.439,384.886 41.000,385.507 41.000 C 385.582 41.000,385.695 41.161,385.758 41.358 C 385.897 41.798,387.223 43.109,387.672 43.252 C 387.852 43.309,388.000 43.426,388.000 43.511 C 388.000 43.597,388.265 43.667,388.589 43.667 C 388.958 43.667,389.213 43.760,389.273 43.917 C 389.346 44.107,389.658 44.167,390.583 44.167 C 391.509 44.167,391.820 44.107,391.894 43.917 C 391.948 43.774,392.197 43.667,392.474 43.667 C 392.741 43.667,393.053 43.554,393.167 43.417 C 393.281 43.279,393.462 43.167,393.569 43.167 C 393.811 43.167,395.167 41.920,395.167 41.698 C 395.167 41.609,395.279 41.492,395.417 41.440 C 395.554 41.387,395.667 41.224,395.667 41.077 C 395.667 40.930,395.779 40.697,395.917 40.560 C 396.054 40.422,396.167 40.117,396.167 39.882 C 396.167 39.648,396.256 39.159,396.364 38.796 C 396.516 38.288,396.516 38.064,396.364 37.821 C 396.256 37.647,396.167 37.164,396.167 36.747 C 396.167 36.227,396.088 35.959,395.917 35.894 C 395.779 35.841,395.667 35.618,395.667 35.399 C 395.667 35.155,395.569 35.000,395.417 35.000 C 395.279 35.000,395.167 34.933,395.167 34.851 C 395.167 34.674,394.249 33.667,394.088 33.667 C 394.026 33.667,393.864 33.554,393.726 33.417 C 393.589 33.279,393.303 33.167,393.091 33.167 C 392.846 33.167,392.674 33.045,392.618 32.833 C 392.538 32.524,392.391 32.500,390.597 32.500 C 388.870 32.500,388.633 32.536,388.378 32.833 " stroke="none" fill="#fc0404" fill-rule="evenodd"></path></g></svg>